<svg width="82" height="56" viewBox="0 0 82 56" fill="none" xmlns="http://www.w3.org/2000/svg">
<path d="M40.9998 17C43.9172 17 46.7151 18.1589 48.778 20.2218C50.8409 22.2847 51.9998 25.0826 51.9998 28C51.9998 30.9174 50.8409 33.7153 48.778 35.7782C46.7151 37.8411 43.9172 39 40.9998 39C38.0825 39 35.2846 37.8411 33.2217 35.7782C31.1588 33.7153 29.9998 30.9174 29.9998 28C29.9998 25.0826 31.1588 22.2847 33.2217 20.2218C35.2846 18.1589 38.0825 17 40.9998 17ZM40.9998 0.5C59.3332 0.5 74.9898 11.9033 81.3332 28C74.9898 44.0967 59.3332 55.5 40.9998 55.5C22.6665 55.5 7.00984 44.0967 0.666504 28C7.00984 11.9033 22.6665 0.5 40.9998 0.5ZM8.65984 28C11.6234 34.0511 16.2253 39.1494 21.9423 42.7153C27.6592 46.2811 34.262 48.1715 40.9998 48.1715C47.7377 48.1715 54.3405 46.2811 60.0574 42.7153C65.7744 39.1494 70.3762 34.0511 73.3398 28C70.3762 21.9489 65.7744 16.8506 60.0574 13.2847C54.3405 9.71888 47.7377 7.8285 40.9998 7.8285C34.262 7.8285 27.6592 9.71888 21.9423 13.2847C16.2253 16.8506 11.6234 21.9489 8.65984 28Z" fill="#2B4D7B"/>
</svg>
