<svg width="72" height="62" viewBox="0 0 72 62" fill="none" xmlns="http://www.w3.org/2000/svg">
<path d="M36.0002 61.875C34.9613 61.875 33.9529 61.6464 32.9752 61.1893C31.9974 60.7322 31.1418 60.0747 30.4085 59.2167L2.3585 25.6667C1.8085 24.9944 1.39661 24.2611 1.12283 23.4667C0.849051 22.6722 0.710941 21.8472 0.708496 20.9917C0.708496 20.4417 0.754941 19.877 0.84783 19.2977C0.940719 18.7183 1.13872 18.183 1.44183 17.6917L8.31683 4.03333C8.98905 2.81111 9.89105 1.83333 11.0228 1.1C12.1546 0.366666 13.4221 0 14.8252 0H57.1752C58.5807 0 59.8494 0.366666 60.9812 1.1C62.1129 1.83333 63.0137 2.81111 63.6835 4.03333L70.5585 17.6917C70.8641 18.1806 71.0633 18.7147 71.1562 19.294C71.2491 19.8733 71.2943 20.4392 71.2918 20.9917C71.2918 21.8472 71.1549 22.6722 70.8812 23.4667C70.6074 24.2611 70.1943 24.9944 69.6418 25.6667L41.5918 59.2167C40.8585 60.0722 40.0029 60.7298 39.0252 61.1893C38.0474 61.6489 37.0391 61.8774 36.0002 61.875ZM27.2918 18.3333H44.7085L39.2085 7.33333H32.7918L27.2918 18.3333ZM32.3335 50.1417V25.6667H11.9835L32.3335 50.1417ZM39.6668 50.1417L60.0168 25.6667H39.6668V50.1417ZM52.8668 18.3333H62.5835L57.0835 7.33333H47.3668L52.8668 18.3333ZM9.41683 18.3333H19.1335L24.6335 7.33333H14.9168L9.41683 18.3333Z" fill="#2B4D7B"/>
</svg>
